<?xml version="1.0" encoding="UTF-8"?>
<svg width="30px" height="27px" viewBox="0 0 30 27" version="1.1" xmlns="http://www.w3.org/2000/svg" xmlns:xlink="http://www.w3.org/1999/xlink">
    <!-- Generator: Sketch 53.2 (72643) - https://sketchapp.com -->
    <title>048-kitchen</title>
    <desc>Created with Sketch.</desc>
    <defs>
        <polygon id="path-1" points="0.00344450519 0.0022963368 29.393111 0.0022963368 29.393111 9.33581465 0.00344450519 9.33581465"></polygon>
        <polygon id="path-3" points="0.00344450519 0.0316320394 29.393111 0.0316320394 29.393111 10.9840678 0.00344450519 10.9840678"></polygon>
    </defs>
    <g id="Page-1" stroke="none" stroke-width="1" fill="none" fill-rule="evenodd">
        <g id="320-index" transform="translate(-49.000000, -699.000000)">
            <g id="Group-27">
                <g id="Group-22" transform="translate(0.000000, 687.000000)">
                    <g id="048-kitchen" transform="translate(49.000000, 12.000000)">
                        <g id="Group-3">
                            <mask id="mask-2" fill="white">
                                <use xlink:href="#path-1"></use>
                            </mask>
                            <g id="Clip-2"></g>
                            <path d="M0.861126299,3.1752023 L2.7674877,3.1752023 L2.7674877,3.95268453 C1.9200246,4.29466648 1.32039366,5.12502187 1.32039366,6.09361673 L1.32039366,7.54048114 C1.32039366,8.0161099 1.7058912,8.40160744 2.18151996,8.40160744 L5.0754784,8.40160744 C5.55110716,8.40160744 5.9366047,8.0161099 5.9366047,7.54048114 L5.9366047,6.09361673 C5.9366047,5.12502187 5.33697376,4.29466648 4.4897403,3.95268453 L4.4897403,3.1752023 L12.3749016,3.1752023 L12.3749016,3.53779388 C10.2198469,3.73332695 8.52537999,5.5493275 8.52537999,7.75438491 L8.52537999,8.47468835 C8.52537999,8.95031711 8.91087753,9.33581465 9.38650629,9.33581465 L20.0066047,9.33581465 C20.4822335,9.33581465 20.867731,8.95031711 20.867731,8.47468835 L20.867731,7.75438491 C20.867731,5.5493275 19.1732641,3.73332695 17.0182094,3.53779388 L17.0182094,3.1752023 L24.9033707,3.1752023 L24.9033707,3.95268453 C24.0561372,4.29466648 23.4565063,5.12502187 23.4565063,6.09361673 L23.4565063,7.54048114 C23.4565063,8.0161099 23.8420038,8.40160744 24.3176326,8.40160744 L27.211591,8.40160744 C27.6872198,8.40160744 28.0727173,8.0161099 28.0727173,7.54048114 L28.0727173,6.09361673 C28.0727173,5.12502187 27.4730864,4.29466648 26.6256233,3.95268453 L26.6256233,3.1752023 L28.5319847,3.1752023 C29.0076134,3.1752023 29.393111,2.78970476 29.393111,2.314076 C29.393111,1.83838983 29.0076134,1.4529497 28.5319847,1.4529497 L26.4511591,1.4529497 C26.2937452,1.24507381 26.0452816,1.11004921 25.764497,1.11004921 C25.483942,1.11004921 25.2352488,1.24507381 25.0780645,1.4529497 L17.0182094,1.4529497 L17.0182094,0.861126299 C17.0182094,0.38549754 16.6327693,0 16.1570831,0 L13.2360279,0 C12.7603417,0 12.3749016,0.38549754 12.3749016,0.861126299 L12.3749016,1.4529497 L4.31504647,1.4529497 C4.15786222,1.24507381 3.90939858,1.11004921 3.628614,1.11004921 C3.34782941,1.11004921 3.09936577,1.24507381 2.94218152,1.4529497 L0.861126299,1.4529497 C0.38549754,1.4529497 0,1.83838983 0,2.314076 C0,2.78970476 0.38549754,3.1752023 0.861126299,3.1752023 Z M26.3504647,6.67935484 L25.1787589,6.67935484 L25.1787589,6.09361673 C25.1787589,5.77046473 25.441345,5.50764899 25.764497,5.50764899 C26.087649,5.50764899 26.3504647,5.77046473 26.3504647,6.09361673 L26.3504647,6.67935484 Z M14.0971542,3.305462 L15.2959568,3.305462 L15.2959568,1.7222526 L14.0971542,1.7222526 L14.0971542,3.305462 Z M10.2514215,7.61356206 C10.3247895,6.29339803 11.4220366,5.24190541 12.7601695,5.24190541 L16.6327693,5.24190541 C17.9710744,5.24190541 19.0683215,6.29339803 19.1416894,7.61356206 L10.2514215,7.61356206 Z M4.2143521,6.67935484 L3.04264625,6.67935484 L3.04264625,6.09361673 C3.04264625,5.77046473 3.305462,5.50764899 3.628614,5.50764899 C3.95176599,5.50764899 4.2143521,5.77046473 4.2143521,6.09361673 L4.2143521,6.67935484 Z" id="Fill-1" fill="#FFFFFF" mask="url(#mask-2)"></path>
                        </g>
                        <path d="M5.5683871,19.7794396 L4.88488245,19.7794396 C4.40925369,19.7794396 4.02375615,20.1651668 4.02375615,20.6405659 C4.02375615,21.1161946 4.40925369,21.5016922 4.88488245,21.5016922 L5.5683871,21.5016922 C6.04401586,21.5016922 6.4295134,21.1161946 6.4295134,20.6405659 C6.4295134,20.1651668 6.04401586,19.7794396 5.5683871,19.7794396 Z" id="Fill-5" fill="#FFFFFF"></path>
                        <g id="Group-9" transform="translate(0.000000, 16.074358)">
                            <mask id="mask-4" fill="white">
                                <use xlink:href="#path-3"></use>
                            </mask>
                            <g id="Clip-7"></g>
                            <path d="M24.5082285,3.70508201 L23.8247239,3.70508201 C23.3490951,3.70508201 22.9635976,4.09080919 22.9635976,4.56620831 C22.9635976,5.04183707 23.3490951,5.42733461 23.8247239,5.42733461 L24.5082285,5.42733461 C24.9838573,5.42733461 25.3693548,5.04183707 25.3693548,4.56620831 C25.3693548,4.09080919 24.9838573,3.70508201 24.5082285,3.70508201 Z" id="Fill-6" fill="#FFFFFF" mask="url(#mask-4)"></path>
                            <path d="M28.5319847,0.0316320394 L0.861126299,0.0316320394 C0.38549754,0.0316320394 0,0.417129579 0,0.892758338 C0,1.3683871 0.38549754,1.75388464 0.861126299,1.75388464 L0.940981411,1.75388464 L0.940981411,10.1229415 C0.940981411,10.5983406 1.32665118,10.9840678 1.80210771,10.9840678 L27.5910033,10.9840678 C28.0666894,10.9840678 28.4521296,10.5983406 28.4521296,10.1229415 L28.4521296,1.75388464 L28.5319847,1.75388464 C29.0076134,1.75388464 29.393111,1.3683871 29.393111,0.892758338 C29.393111,0.417129579 29.0076134,0.0316320394 28.5319847,0.0316320394 Z M2.66323401,9.2618152 L7.91742482,9.2618152 L7.91742482,1.75388464 L2.66323401,1.75388464 L2.66323401,9.2618152 Z M9.63967742,9.2618152 L19.7534336,9.2618152 L19.7534336,1.75388464 L9.63967742,1.75388464 L9.63967742,9.2618152 Z M21.4756862,9.2618152 L26.729877,9.2618152 L26.729877,1.75388464 L21.4756862,1.75388464 L21.4756862,9.2618152 Z" id="Fill-8" fill="#FFFFFF" mask="url(#mask-4)"></path>
                            <rect id="Rectangle" stroke="#FFFFFF" fill-rule="nonzero" mask="url(#mask-4)" x="12.2419355" y="4.11290323" width="5.32258065" height="2.61290323"></rect>
                        </g>
                    </g>
                </g>
            </g>
        </g>
    </g>
</svg>