<?xml version="1.0" encoding="UTF-8"?>
<svg width="31px" height="25px" viewBox="0 0 31 25" version="1.1" xmlns="http://www.w3.org/2000/svg" xmlns:xlink="http://www.w3.org/1999/xlink">
    <!-- Generator: Sketch 53.2 (72643) - https://sketchapp.com -->
    <title>Fill 1</title>
    <desc>Created with Sketch.</desc>
    <g id="Page-1" stroke="none" stroke-width="1" fill="none" fill-rule="evenodd">
        <g id="320-index" transform="translate(-296.000000, -701.000000)" fill="#FFFFFF">
            <g id="Group-27">
                <g id="Group-22" transform="translate(0.000000, 687.000000)">
                    <path d="M325.489809,20.2640625 L315.801902,20.2640625 L315.801902,18.6835987 C315.801902,17.5782352 315.012679,16.6539048 313.968016,16.443916 C313.96944,16.4227925 313.971042,16.4017283 313.971042,16.3801302 L313.971042,14.8900345 C313.971042,14.3984388 313.572603,14 313.081007,14 C312.589649,14 312.190973,14.3984388 312.190973,14.8900345 L312.190973,16.3801302 C312.190973,16.4017283 312.192812,16.4227925 312.194236,16.443916 C311.149811,16.6539048 310.360409,17.5782352 310.360409,18.6835987 L310.360409,20.2640625 L303.753506,20.2640625 C303.349252,18.5257066 301.787301,17.2266123 299.927485,17.2266123 C297.761734,17.2266123 296,18.9883465 296,21.154097 L296,35.0880019 C296,37.2452081 297.754792,39 299.911998,39 L325.489809,39 C325.981404,39 326.379843,38.6013239 326.379843,38.1099655 L326.379843,21.154097 C326.379843,20.6625013 325.981404,20.2640625 325.489809,20.2640625 Z M312.140478,18.6835987 C312.140478,18.4054332 312.366666,18.1792458 312.644831,18.1792458 L313.51748,18.1792458 C313.795586,18.1792458 314.021833,18.4054332 314.021833,18.6835987 L314.021833,21.9685972 L312.140478,21.9685972 L312.140478,18.6835987 Z M297.780069,21.154097 C297.780069,19.9699358 298.743324,19.0066812 299.927485,19.0066812 C301.081325,19.0066812 302.025355,19.9210433 302.07312,21.0632542 C302.070094,21.093634 302.068433,21.1239545 302.068433,21.1545717 L302.073536,31.5146915 C301.456327,31.1104378 300.718785,30.8751721 299.927485,30.8751721 C299.135532,30.8751721 298.397515,31.1106752 297.780069,31.5155815 L297.780069,21.154097 Z M324.599774,37.2196937 L299.911998,37.2196937 C298.736381,37.2196937 297.780069,36.2636187 297.780069,35.0880019 L297.780069,34.8027161 C297.780069,33.618555 298.743324,32.6550037 299.927485,32.6550037 C301.111468,32.6550037 302.074723,33.6180803 302.075197,34.8020041 L302.075197,34.8031908 C302.075435,35.2945492 302.473814,35.6927506 302.965232,35.6927506 L302.965469,35.6927506 C303.456827,35.6927506 303.855266,35.2943118 303.855266,34.8027161 L303.855266,34.7994527 L303.848977,22.0441315 L310.360409,22.0441315 L310.360409,22.8586317 C310.360409,23.3502274 310.758789,23.7486661 311.250444,23.7486661 L311.818523,23.7486661 L308.58752,32.8035801 C308.422211,33.2666947 308.663766,33.7759131 309.126644,33.9409254 C309.589462,34.1059972 310.098917,33.8646792 310.263989,33.4018019 L313.081245,25.5069589 L315.898322,33.4018019 C316.028327,33.7659447 316.370871,33.9930815 316.736616,33.9930815 C316.835825,33.9930815 316.936874,33.9761708 317.035668,33.9409254 C317.498723,33.7759131 317.740041,33.2666947 317.574969,32.8035801 L314.343729,23.7486661 L314.911868,23.7486661 C315.403463,23.7486661 315.801902,23.3502274 315.801902,22.8586317 L315.801902,22.0441315 L324.599774,22.0441315 L324.599774,37.2196937 Z" id="Fill-1"></path>
                </g>
            </g>
        </g>
    </g>
</svg>