<svg xmlns="http://www.w3.org/2000/svg" viewBox="-20 43 130 46.5"><path d="M79 76.6c-.5.1-.9.1-1.4.1s-.9 0-1.3-.1-.7-.2-1-.4-.5-.5-.6-.8c-.1-.3-.2-.8-.2-1.3v-7.7c0-.6-.2-1.1-.5-1.4-.3-.3-.9-.4-1.5-.4-.3 0-.6.1-1 .2s-.6.3-.8.4v11.2c-.2.1-.6.1-1.1.2s-.9.1-1.4.1-.9 0-1.3-.1-.7-.2-1-.4-.5-.5-.6-.8c-.1-.3-.2-.8-.2-1.3v-7.7c0-.6-.2-1.1-.6-1.4-.4-.3-.9-.4-1.4-.4-.4 0-.7.1-1 .2-.3.1-.5.2-.7.3v11.4c-.2.1-.6.1-1 .2s-.9.1-1.4.1-.9 0-1.3-.1-.7-.2-1-.4c-.3-.2-.5-.5-.6-.8-.1-.4-.1-.8-.1-1.3v-9.8c0-.6.1-1 .4-1.4.3-.4.6-.7 1-1 .7-.5 1.6-.9 2.7-1.3s2.2-.5 3.4-.5c.9 0 1.8.1 2.6.4.9.3 1.6.6 2.2 1.1.6-.4 1.4-.8 2.2-1.1.8-.3 1.8-.4 2.9-.4.8 0 1.6.1 2.4.3.8.2 1.5.6 2.1 1 .6.5 1.1 1.1 1.5 1.8.4.8.5 1.7.5 2.8v10.2c-.1.2-.4.3-.9.3zm-30.5 0c-1.1.3-2.2.4-3.4.4-1.2 0-2.2-.1-3.2-.4-1-.3-1.8-.7-2.5-1.2s-1.3-1.2-1.7-2.1-.6-1.9-.6-3.1V61c.2-.1.6-.1 1-.2s.9-.1 1.4-.1.9 0 1.3.1.7.2 1 .4c.3.2.5.5.6.8.1.3.2.8.2 1.3v6.9c0 .9.2 1.5.6 1.9s1.1.6 1.9.6c.5 0 .9 0 1.2-.1.3-.1.6-.2.7-.3V61c.2-.1.6-.1 1-.2.5-.1.9-.1 1.4-.1s.9 0 1.3.1.7.2 1 .4c.3.2.5.5.6.8.1.3.2.8.2 1.3v9.8c0 1.1-.4 1.9-1.4 2.4-.6.5-1.5.9-2.6 1.1zM30.9 59.3c-.9 0-1.6-.3-2.2-.8-.5-.6-.8-1.2-.8-2.1 0-.8.3-1.5.8-2.1s1.3-.8 2.2-.8 1.6.3 2.2.8c.5.6.8 1.2.8 2.1 0 .8-.3 1.5-.8 2.1-.6.5-1.3.8-2.2.8zm-8.8 17.4c-.5 0-.9 0-1.3-.1s-.7-.2-1-.4-.5-.5-.6-.8c-.1-.3-.2-.8-.2-1.3V55.4c.2 0 .6-.1 1.1-.2.5-.1.9-.1 1.4-.1s.9 0 1.3.1.7.2 1 .4c.3.2.5.5.6.8.1.3.2.8.2 1.3v18.8c-.2 0-.6.1-1.1.2h-1.4zm-8.2-7.2l-8 1.2c.2.7.7 1.2 1.5 1.6.7.4 1.6.5 2.5.5s1.7-.1 2.5-.3c.8-.2 1.4-.5 1.9-.8.4.2.6.5.9.9.2.4.4.8.4 1.2 0 1-.4 1.7-1.4 2.2-.7.4-1.5.6-2.3.7-.9.2-1.7.3-2.4.3-1.3 0-2.5-.2-3.6-.5-1.1-.4-2-.9-2.8-1.6-.8-.7-1.4-1.6-1.9-2.7s-.7-2.3-.7-3.8c0-1.4.2-2.7.7-3.7s1.1-1.9 1.8-2.5c.8-.7 1.6-1.1 2.6-1.5 1-.3 2-.5 3-.5 1.2 0 2.2.2 3.1.5.9.4 1.8.8 2.4 1.4s1.2 1.3 1.6 2.2c.4.8.6 1.8.6 2.8 0 .7-.2 1.3-.6 1.7-.5.4-1 .6-1.8.7zm-3.5-4.6c-.4-.4-1-.6-1.8-.6-.5 0-1 .1-1.3.3-.4.2-.7.4-.9.7-.2.3-.4.6-.5.9-.1.3-.2.7-.2 1l5.5-.9c-.2-.5-.4-.9-.8-1.4zm-15.1 9.5c-1 .9-2.1 1.5-3.5 2-1.2.4-2.7.6-4.3.6h-1.3c-.5 0-1-.1-1.5-.1-.5-.1-1-.1-1.5-.2s-1-.2-1.4-.4c-1.2-.6-1.8-1.4-1.8-2.5V58.7c0-.4.1-.8.4-1.1.3-.3.6-.4 1-.6.9-.3 1.9-.5 2.9-.6 1-.1 2-.1 2.8-.1 1.7 0 3.2.2 4.6.6 1.4.4 2.6 1 3.5 1.9 1 .9 1.7 1.9 2.3 3.2.5 1.3.8 2.8.8 4.6 0 1.7-.3 3.2-.8 4.5s-1.2 2.4-2.2 3.3zm-4.2-12.1c-.9-1-2.1-1.5-3.6-1.5h-.9c-.3 0-.6.1-1 .1v11.3c.2 0 .5.1.9.1h1c.7 0 1.4-.1 2-.3.6-.2 1.2-.5 1.6-1 .4-.4.8-1 1-1.8.3-.7.4-1.6.4-2.6 0-1.8-.5-3.3-1.4-4.3zm39.5-1.6c.5 0 .9 0 1.3.1s.7.2 1 .4c.3.2.5.5.6.8.1.3.2.8.2 1.3v13.2c-.2 0-.6.1-1.1.2-.5.1-.9.1-1.4.1s-.9 0-1.3-.1-.7-.2-1-.4c-.3-.2-.5-.5-.6-.8s-.2-.8-.2-1.3V61c.2 0 .6-.1 1.1-.2.4-.1.9-.1 1.4-.1z"/><path d="M102 50.1l-2.3-6c-.3-.8-1.5-.9-1.9 0L95.4 50c-1.4 3.4-2.6 7.9-2.6 7.9l-1.7 6.2c-.2.9.7 1.6 1.5 1.1l5.4-3.4c.3-.2.8-.2 1.1 0l5.4 3.5c.8.5 1.7-.2 1.5-1.1l-1.6-6.2c1 3.9-1.8-6.1-2.4-7.9z" fill="#a0237d"/><path d="M104.7 57.1l5-4.1c.7-.6.3-1.7-.6-1.8l-6.4-.4c-3.7-.2-8.3 0-8.3 0l-6.4.4c-.9 0-1.3 1.2-.6 1.8l5 4.1c.3.2.4.6.3 1l-1.6 6.2c-.2.9.7 1.6 1.5 1.1L98 62c-3.5 2 5.2-3.8 6.7-4.9z" fill="#e43c96"/></svg>